<svg width="24" height="24" viewBox="0 0 24 24" fill="none" xmlns="http://www.w3.org/2000/svg">
<g id="uil:enter">
<path id="Vector" d="M4.99998 6C5.2652 6 5.51955 6.10536 5.70709 6.29289C5.89463 6.48043 5.99998 6.73478 5.99998 7V11C5.99998 11.2652 6.10534 11.5196 6.29287 11.7071C6.48041 11.8946 6.73477 12 6.99998 12H16.59L15.29 10.71C15.1017 10.5217 14.9959 10.2663 14.9959 10C14.9959 9.7337 15.1017 9.4783 15.29 9.29C15.4783 9.1017 15.7337 8.99591 16 8.99591C16.2663 8.99591 16.5217 9.1017 16.71 9.29L19.71 12.29C19.801 12.3851 19.8724 12.4972 19.92 12.62C20.02 12.8635 20.02 13.1365 19.92 13.38C19.8724 13.5028 19.801 13.6149 19.71 13.71L16.71 16.71C16.617 16.8037 16.5064 16.8781 16.3846 16.9289C16.2627 16.9797 16.132 17.0058 16 17.0058C15.868 17.0058 15.7373 16.9797 15.6154 16.9289C15.4935 16.8781 15.3829 16.8037 15.29 16.71C15.1963 16.617 15.1219 16.5064 15.0711 16.3846C15.0203 16.2627 14.9942 16.132 14.9942 16C14.9942 15.868 15.0203 15.7373 15.0711 15.6154C15.1219 15.4936 15.1963 15.383 15.29 15.29L16.59 14H6.99998C6.20433 14 5.44127 13.6839 4.87866 13.1213C4.31605 12.5587 3.99998 11.7956 3.99998 11V7C3.99998 6.73478 4.10534 6.48043 4.29287 6.29289C4.48041 6.10536 4.73477 6 4.99998 6Z" fill="#F63F5D"/>
</g>
</svg>
